<svg width="50" height="37" viewBox="0 0 50 37" fill="none" xmlns="http://www.w3.org/2000/svg">
<path d="M0 36.3636V27.2727C0 26.1742 0.388258 25.2367 1.16477 24.4602C1.94129 23.6837 2.87879 23.2955 3.97727 23.2955H11.9886C12.6326 23.2955 13.2481 23.4564 13.8352 23.7784C14.4223 24.1004 14.9242 24.5455 15.3409 25.1136C16.4394 26.7045 17.8409 27.9356 19.5455 28.8068C21.25 29.678 23.0682 30.1136 25 30.1136C26.9318 30.1136 28.75 29.678 30.4545 28.8068C32.1591 27.9356 33.5795 26.7045 34.7159 25.1136C35.1326 24.5455 35.625 24.1004 36.1932 23.7784C36.7614 23.4564 37.3674 23.2955 38.0114 23.2955H46.0227C47.1212 23.2955 48.0587 23.6837 48.8352 24.4602C49.6117 25.2367 50 26.1742 50 27.2727V36.3636H35.2273V29.6023C33.8636 30.8523 32.3011 31.8182 30.5398 32.5C28.7784 33.1818 26.9318 33.5227 25 33.5227C23.0682 33.5227 21.2311 33.1818 19.4886 32.5C17.7462 31.8182 16.1742 30.8523 14.7727 29.6023V36.3636H0ZM25 26.7045C23.6742 26.7045 22.3958 26.392 21.1648 25.767C19.9337 25.142 18.9394 24.2803 18.1818 23.1818C17.5758 22.3106 16.8466 21.6098 15.9943 21.0795C15.142 20.5492 14.2235 20.1894 13.2386 20C14.3371 18.8636 16.0606 17.9924 18.4091 17.3864C20.7576 16.7803 22.9545 16.4773 25 16.4773C27.0455 16.4773 29.2519 16.7803 31.6193 17.3864C33.9867 17.9924 35.7197 18.8636 36.8182 20C35.8333 20.1894 34.9148 20.5492 34.0625 21.0795C33.2102 21.6098 32.4811 22.3106 31.875 23.1818C31.1174 24.2803 30.1231 25.142 28.892 25.767C27.661 26.392 26.3636 26.7045 25 26.7045ZM6.81818 19.3182C5.11364 19.3182 3.64583 18.7027 2.41477 17.4716C1.18371 16.2405 0.568182 14.7727 0.568182 13.0682C0.568182 11.3258 1.18371 9.84848 2.41477 8.63636C3.64583 7.42424 5.11364 6.81818 6.81818 6.81818C8.56061 6.81818 10.0379 7.42424 11.25 8.63636C12.4621 9.84848 13.0682 11.3258 13.0682 13.0682C13.0682 14.7727 12.4621 16.2405 11.25 17.4716C10.0379 18.7027 8.56061 19.3182 6.81818 19.3182ZM43.1818 19.3182C41.4773 19.3182 40.0095 18.7027 38.7784 17.4716C37.5473 16.2405 36.9318 14.7727 36.9318 13.0682C36.9318 11.3258 37.5473 9.84848 38.7784 8.63636C40.0095 7.42424 41.4773 6.81818 43.1818 6.81818C44.9242 6.81818 46.4015 7.42424 47.6136 8.63636C48.8258 9.84848 49.4318 11.3258 49.4318 13.0682C49.4318 14.7727 48.8258 16.2405 47.6136 17.4716C46.4015 18.7027 44.9242 19.3182 43.1818 19.3182ZM25 12.5C23.2955 12.5 21.8277 11.8845 20.5966 10.6534C19.3655 9.42235 18.75 7.95455 18.75 6.25C18.75 4.50758 19.3655 3.0303 20.5966 1.81818C21.8277 0.606061 23.2955 0 25 0C26.7424 0 28.2197 0.606061 29.4318 1.81818C30.6439 3.0303 31.25 4.50758 31.25 6.25C31.25 7.95455 30.6439 9.42235 29.4318 10.6534C28.2197 11.8845 26.7424 12.5 25 12.5Z" fill="#5F6368"/>
</svg>
