<svg width="50" height="50" viewBox="0 0 50 50" fill="none" xmlns="http://www.w3.org/2000/svg">
<path d="M14.7553 50C13.5125 50 12.4531 49.5576 11.577 48.6727C10.7009 47.7879 10.2628 46.724 10.2628 45.4812C10.2628 44.2384 10.7053 43.179 11.5901 42.3029C12.475 41.4268 13.5388 40.9887 14.7816 40.9887C16.0244 40.9887 17.0839 41.4312 17.96 42.316C18.836 43.2009 19.2741 44.2647 19.2741 45.5075C19.2741 46.7503 18.8317 47.8098 17.9468 48.6859C17.062 49.562 15.9981 50 14.7553 50ZM39.7866 50C38.5438 50 37.4844 49.5576 36.6083 48.6727C35.7322 47.7879 35.2941 46.724 35.2941 45.4812C35.2941 44.2384 35.7365 43.179 36.6214 42.3029C37.5063 41.4268 38.5701 40.9887 39.8129 40.9887C41.0557 40.9887 42.1151 41.4312 42.9912 42.316C43.8673 43.2009 44.3054 44.2647 44.3054 45.5075C44.3054 46.7503 43.863 47.8098 42.9781 48.6859C42.0932 49.562 41.0294 50 39.7866 50ZM11.5144 8.69837L18.398 22.9662H36.4205L44.2428 8.69837H11.5144ZM9.63705 4.94368H46.5C47.4583 4.94368 48.1873 5.38173 48.6871 6.25782C49.1869 7.13392 49.1865 8.01001 48.6859 8.88611L40.2378 24.0926C39.7789 24.8853 39.1831 25.5215 38.4506 26.0012C37.718 26.481 36.9161 26.7209 36.0451 26.7209H17.0839L13.5795 33.229H44.3054V36.9837H14.1427C12.3905 36.9837 11.1285 36.3997 10.3567 35.2315C9.5849 34.0634 9.59533 32.7493 10.388 31.2891L14.393 23.9049L4.8811 3.75469H0V0H7.32165L9.63705 4.94368Z" fill="#5F6368"/>
</svg>
