<svg width="51" height="51" viewBox="0 0 51 51" fill="none" xmlns="http://www.w3.org/2000/svg">
<path d="M24.0804 43.2868H27.7262V40.6826C29.4623 40.3701 30.9554 39.693 32.2054 38.6514C33.4554 37.6097 34.0804 36.0646 34.0804 34.0159C34.0804 32.5576 33.6637 31.2208 32.8304 30.0055C31.9971 28.7903 30.3304 27.7312 27.8304 26.8284C25.7471 26.134 24.3061 25.5264 23.5075 25.0055C22.7089 24.4847 22.3096 23.7729 22.3096 22.8701C22.3096 21.9673 22.6307 21.2555 23.2731 20.7347C23.9155 20.2139 24.8443 19.9534 26.0596 19.9534C27.1707 19.9534 28.0387 20.2225 28.6637 20.7607C29.2887 21.2989 29.7401 21.9673 30.0179 22.7659L33.3512 21.4118C32.9693 20.1965 32.2662 19.1375 31.2419 18.2347C30.2176 17.3319 29.0804 16.8284 27.8304 16.7243V14.1201H24.1846V16.7243C22.4485 17.1062 21.0943 17.8701 20.1221 19.0159C19.1498 20.1618 18.6637 21.4465 18.6637 22.8701C18.6637 24.5021 19.1412 25.8215 20.096 26.8284C21.0509 27.8354 22.5526 28.7034 24.6012 29.4326C26.7887 30.2312 28.3078 30.943 29.1585 31.568C30.0092 32.193 30.4346 33.009 30.4346 34.0159C30.4346 35.1618 30.0266 36.0038 29.2106 36.542C28.3946 37.0802 27.4137 37.3493 26.2679 37.3493C25.1221 37.3493 24.1064 36.9934 23.221 36.2816C22.3356 35.5698 21.6846 34.5021 21.2679 33.0784L17.8304 34.4326C18.3165 36.0993 19.0717 37.4448 20.096 38.4691C21.1203 39.4934 22.4485 40.1965 24.0804 40.5784V43.2868ZM25.9554 49.5368C23.0735 49.5368 20.3651 48.9899 17.8304 47.8962C15.2957 46.8024 13.0908 45.318 11.2158 43.443C9.34082 41.568 7.85645 39.3632 6.7627 36.8284C5.66895 34.2937 5.12207 31.5854 5.12207 28.7034C5.12207 25.8215 5.66895 23.1132 6.7627 20.5784C7.85645 18.0437 9.34082 15.8389 11.2158 13.9639C13.0908 12.0889 15.2957 10.6045 17.8304 9.51074C20.3651 8.41699 23.0735 7.87012 25.9554 7.87012C28.8373 7.87012 31.5457 8.41699 34.0804 9.51074C36.6151 10.6045 38.82 12.0889 40.695 13.9639C42.57 15.8389 44.0544 18.0437 45.1481 20.5784C46.2419 23.1132 46.7887 25.8215 46.7887 28.7034C46.7887 31.5854 46.2419 34.2937 45.1481 36.8284C44.0544 39.3632 42.57 41.568 40.695 43.443C38.82 45.318 36.6151 46.8024 34.0804 47.8962C31.5457 48.9899 28.8373 49.5368 25.9554 49.5368ZM25.9554 45.3701C30.6082 45.3701 34.5492 43.7555 37.7783 40.5264C41.0075 37.2972 42.6221 33.3562 42.6221 28.7034C42.6221 24.0507 41.0075 20.1097 37.7783 16.8805C34.5492 13.6514 30.6082 12.0368 25.9554 12.0368C21.3026 12.0368 17.3617 13.6514 14.1325 16.8805C10.9033 20.1097 9.28874 24.0507 9.28874 28.7034C9.28874 33.3562 10.9033 37.2972 14.1325 40.5264C17.3617 43.7555 21.3026 45.3701 25.9554 45.3701Z" fill="#5F6368"/>
</svg>
