<svg width="58" height="16" viewBox="0 0 58 16" fill="none" xmlns="http://www.w3.org/2000/svg">
<path d="M0.299805 15.9999V1.99992H2.4598V15.9999H0.299805ZM1.0798 10.1999V8.11992H10.3998V10.1999H1.0798ZM1.2998 4.07992V1.99992H11.2998V4.07992H1.2998Z" fill="black"/>
<path d="M17.5981 15.9999V5.49992H19.6581V15.9999H17.5981ZM18.5981 3.01992C18.1581 3.01992 17.8181 2.90659 17.5781 2.67992C17.3381 2.45326 17.2181 2.13326 17.2181 1.71992C17.2181 1.33326 17.3381 1.01992 17.5781 0.779922C17.8314 0.539922 18.1714 0.419922 18.5981 0.419922C19.0381 0.419922 19.3781 0.533255 19.6181 0.759922C19.8581 0.986588 19.9781 1.30659 19.9781 1.71992C19.9781 2.10659 19.8514 2.41992 19.5981 2.65992C19.3581 2.89992 19.0248 3.01992 18.5981 3.01992Z" fill="black"/>
<path d="M27.2646 15.9999V5.49992H29.3246V8.29992L28.6446 8.37992C28.9246 7.88659 29.298 7.40659 29.7646 6.93992C30.2313 6.45992 30.7846 6.06659 31.4246 5.75992C32.078 5.43992 32.7913 5.27992 33.5646 5.27992C34.618 5.27992 35.4913 5.47326 36.1847 5.85992C36.8913 6.24659 37.418 6.77992 37.7646 7.45992C38.1113 8.13992 38.2846 8.90659 38.2846 9.75992V15.9999H36.2246V10.0599C36.2246 9.47326 36.0846 8.96659 35.8046 8.53992C35.5246 8.09992 35.1447 7.76659 34.6646 7.53992C34.1847 7.29992 33.6446 7.18659 33.0446 7.19992C32.5113 7.19992 32.018 7.29326 31.5646 7.47992C31.1113 7.66659 30.718 7.91326 30.3846 8.21992C30.0513 8.52659 29.7913 8.85992 29.6046 9.21992C29.418 9.57992 29.3246 9.93326 29.3246 10.2799V15.9999H28.3046C27.998 15.9999 27.758 15.9999 27.5846 15.9999C27.4113 15.9999 27.3046 15.9999 27.2646 15.9999Z" fill="black"/>
<path d="M54.8179 15.9999L50.4179 11.3799L50.0379 10.9799L44.8579 5.49992H47.8579L51.7379 9.93992L52.0979 10.3199L57.7379 15.9999H54.8179ZM44.5579 15.9999L49.6579 10.4399L51.0379 11.7199L47.3779 15.9999H44.5579ZM52.2179 11.0199L50.9979 9.57992L54.6979 5.49992H57.5379L52.2179 11.0199Z" fill="black"/>
</svg>
