<svg width="50" height="50" viewBox="0 0 50 50" fill="none" xmlns="http://www.w3.org/2000/svg">
<path d="M6.25 43.75V14.8437H14.8437V6.25H35.1562V23.4375H43.75V43.75H27.7604V35.1562H22.2396V43.75H6.25ZM9.375 40.625H14.8437V35.1562H9.375V40.625ZM9.375 32.0312H14.8437V26.5625H9.375V32.0312ZM9.375 23.4375H14.8437V17.9687H9.375V23.4375ZM17.9687 32.0312H23.4375V26.5625H17.9687V32.0312ZM17.9687 23.4375H23.4375V17.9687H17.9687V23.4375ZM17.9687 14.8437H23.4375V9.375H17.9687V14.8437ZM26.5625 32.0312H32.0312V26.5625H26.5625V32.0312ZM26.5625 23.4375H32.0312V17.9687H26.5625V23.4375ZM26.5625 14.8437H32.0312V9.375H26.5625V14.8437ZM35.1562 40.625H40.625V35.1562H35.1562V40.625ZM35.1562 32.0312H40.625V26.5625H35.1562V32.0312Z" fill="#5F6368"/>
</svg>
