<svg width="50" height="50" viewBox="0 0 50 50" fill="none" xmlns="http://www.w3.org/2000/svg">
<path d="M21.875 38.9583H28.125V28.125H38.9583V21.875H28.125V11.0417H21.875V21.875H11.0417V28.125H21.875V38.9583ZM4.16667 50C3.05556 50 2.08333 49.5833 1.25 48.75C0.416667 47.9167 0 46.9444 0 45.8333V4.16667C0 3.05556 0.416667 2.08333 1.25 1.25C2.08333 0.416667 3.05556 0 4.16667 0H45.8333C46.9444 0 47.9167 0.416667 48.75 1.25C49.5833 2.08333 50 3.05556 50 4.16667V45.8333C50 46.9444 49.5833 47.9167 48.75 48.75C47.9167 49.5833 46.9444 50 45.8333 50H4.16667ZM4.16667 45.8333H45.8333V4.16667H4.16667V45.8333Z" fill="#5F6368"/>
</svg>
