<svg width="50" height="25" viewBox="0 0 50 25" fill="none" xmlns="http://www.w3.org/2000/svg">
<path d="M0 25V22.2396C0 20.9003 0.720486 19.8104 2.16146 18.9698C3.60243 18.1288 5.49271 17.7083 7.83229 17.7083C8.25451 17.7083 8.66059 17.717 9.05052 17.7344C9.44045 17.7517 9.82639 17.7891 10.2083 17.8464C9.93056 18.4488 9.72222 19.0594 9.58333 19.6781C9.44444 20.2965 9.375 20.942 9.375 21.6146V25H0ZM12.5 25V21.6146C12.5 20.5035 12.8038 19.4878 13.4115 18.5677C14.0191 17.6476 14.8785 16.8403 15.9896 16.1458C17.1007 15.4514 18.4288 14.9306 19.974 14.5833C21.5191 14.2361 23.1944 14.0625 25 14.0625C26.8403 14.0625 28.533 14.2361 30.0781 14.5833C31.6233 14.9306 32.9514 15.4514 34.0625 16.1458C35.1736 16.8403 36.0243 17.6476 36.6146 18.5677C37.2049 19.4878 37.5 20.5035 37.5 21.6146V25H12.5ZM40.625 25V21.6146C40.625 20.925 40.5642 20.2752 40.4427 19.6651C40.3212 19.055 40.1215 18.4502 39.8437 17.8505C40.2257 17.7905 40.6106 17.7517 40.9984 17.7344C41.3863 17.717 41.7826 17.7083 42.1875 17.7083C44.5312 17.7083 46.4193 18.121 47.8516 18.9464C49.2839 19.7717 50 20.8694 50 22.2396V25H40.625ZM15.625 21.875H34.375V21.5625C34.375 20.2778 33.4983 19.2274 31.7448 18.4115C29.9913 17.5955 27.7431 17.1875 25 17.1875C22.2569 17.1875 20.0087 17.5955 18.2552 18.4115C16.5017 19.2274 15.625 20.2951 15.625 21.6146V21.875ZM7.7901 16.1458C6.79809 16.1458 5.94618 15.7889 5.23437 15.075C4.52257 14.3608 4.16667 13.5024 4.16667 12.5C4.16667 11.4931 4.52361 10.6337 5.2375 9.92188C5.95174 9.21007 6.81007 8.85417 7.8125 8.85417C8.81944 8.85417 9.67882 9.21007 10.3906 9.92188C11.1024 10.6337 11.4583 11.5005 11.4583 12.5224C11.4583 13.5144 11.1024 14.3663 10.3906 15.0781C9.67882 15.7899 8.81198 16.1458 7.7901 16.1458ZM42.1651 16.1458C41.1731 16.1458 40.3212 15.7889 39.6094 15.075C38.8976 14.3608 38.5417 13.5024 38.5417 12.5C38.5417 11.4931 38.8986 10.6337 39.6125 9.92188C40.3267 9.21007 41.1851 8.85417 42.1875 8.85417C43.1944 8.85417 44.0538 9.21007 44.7656 9.92188C45.4774 10.6337 45.8333 11.5005 45.8333 12.5224C45.8333 13.5144 45.4774 14.3663 44.7656 15.0781C44.0538 15.7899 43.187 16.1458 42.1651 16.1458ZM25 12.5C23.2639 12.5 21.7882 11.8924 20.5729 10.6771C19.3576 9.46181 18.75 7.98611 18.75 6.25C18.75 4.47917 19.3576 2.99479 20.5729 1.79687C21.7882 0.598958 23.2639 0 25 0C26.7708 0 28.2552 0.598958 29.4531 1.79687C30.651 2.99479 31.25 4.47917 31.25 6.25C31.25 7.98611 30.651 9.46181 29.4531 10.6771C28.2552 11.8924 26.7708 12.5 25 12.5ZM25.0182 9.375C25.9089 9.375 26.6493 9.07379 27.2396 8.47136C27.8299 7.86892 28.125 7.1224 28.125 6.23177C28.125 5.34115 27.8273 4.60069 27.2318 4.01042C26.6363 3.42014 25.8984 3.125 25.0182 3.125C24.138 3.125 23.3941 3.42274 22.7865 4.01823C22.1788 4.61372 21.875 5.35156 21.875 6.23177C21.875 7.11198 22.1762 7.8559 22.7786 8.46354C23.3811 9.07118 24.1276 9.375 25.0182 9.375Z" fill="#5F6368"/>
</svg>
