<svg width="51" height="51" viewBox="0 0 51 51" fill="none" xmlns="http://www.w3.org/2000/svg">
<path d="M2.56152 43.8213V39.6546H48.3949V43.8213H2.56152ZM8.81152 37.5713C7.66569 37.5713 6.68479 37.1633 5.86882 36.3473C5.05284 35.5314 4.64486 34.5505 4.64486 33.4046V10.488C4.64486 9.34212 5.05284 8.36122 5.86882 7.54525C6.68479 6.72928 7.66569 6.32129 8.81152 6.32129H42.1449C43.2907 6.32129 44.2716 6.72928 45.0876 7.54525C45.9035 8.36122 46.3115 9.34212 46.3115 10.488V33.4046C46.3115 34.5505 45.9035 35.5314 45.0876 36.3473C44.2716 37.1633 43.2907 37.5713 42.1449 37.5713H8.81152ZM8.81152 33.4046H42.1449V10.488H8.81152V33.4046Z" fill="#5F6368"/>
</svg>
