<svg width="50" height="50" viewBox="0 0 50 50" fill="none" xmlns="http://www.w3.org/2000/svg">
<path d="M19.25 50L18 42.125C17.2083 41.8333 16.375 41.4375 15.5 40.9375C14.625 40.4375 13.8542 39.9167 13.1875 39.375L5.8125 42.75L0 32.5L6.75 27.5625C6.66667 27.1875 6.61458 26.7604 6.59375 26.2812C6.57292 25.8021 6.5625 25.375 6.5625 25C6.5625 24.625 6.57292 24.1979 6.59375 23.7188C6.61458 23.2396 6.66667 22.8125 6.75 22.4375L0 17.5L5.8125 7.25L13.1875 10.625C13.8542 10.0833 14.625 9.5625 15.5 9.0625C16.375 8.5625 17.2083 8.1875 18 7.9375L19.25 0H30.75L32 7.875C32.7917 8.16667 33.6354 8.55208 34.5312 9.03125C35.4271 9.51042 36.1875 10.0417 36.8125 10.625L44.1875 7.25L50 17.5L43.25 22.3125C43.3333 22.7292 43.3854 23.1771 43.4062 23.6562C43.4271 24.1354 43.4375 24.5833 43.4375 25C43.4375 25.4167 43.4271 25.8542 43.4062 26.3125C43.3854 26.7708 43.3333 27.2083 43.25 27.625L50 32.5L44.1875 42.75L36.8125 39.375C36.1458 39.9167 35.3854 40.4479 34.5312 40.9688C33.6771 41.4896 32.8333 41.875 32 42.125L30.75 50H19.25ZM22.25 46.25H27.75L28.625 39.25C30 38.9167 31.3021 38.3958 32.5312 37.6875C33.7604 36.9792 34.875 36.125 35.875 35.125L42.5 38L45 33.5L39.125 29.1875C39.2917 28.4792 39.4271 27.7812 39.5312 27.0938C39.6354 26.4062 39.6875 25.7083 39.6875 25C39.6875 24.2917 39.6458 23.5938 39.5625 22.9062C39.4792 22.2188 39.3333 21.5208 39.125 20.8125L45 16.5L42.5 12L35.875 14.875C34.9167 13.7917 33.8333 12.8854 32.625 12.1562C31.4167 11.4271 30.0833 10.9583 28.625 10.75L27.75 3.75H22.25L21.375 10.75C19.9583 11.0417 18.6354 11.5417 17.4062 12.25C16.1771 12.9583 15.0833 13.8333 14.125 14.875L7.5 12L5 16.5L10.875 20.8125C10.7083 21.5208 10.5729 22.2188 10.4688 22.9062C10.3646 23.5938 10.3125 24.2917 10.3125 25C10.3125 25.7083 10.3646 26.4062 10.4688 27.0938C10.5729 27.7812 10.7083 28.4792 10.875 29.1875L5 33.5L7.5 38L14.125 35.125C15.125 36.125 16.2396 36.9792 17.4688 37.6875C18.6979 38.3958 20 38.9167 21.375 39.25L22.25 46.25ZM25 33.125C27.25 33.125 29.1667 32.3333 30.75 30.75C32.3333 29.1667 33.125 27.25 33.125 25C33.125 22.75 32.3333 20.8333 30.75 19.25C29.1667 17.6667 27.25 16.875 25 16.875C22.75 16.875 20.8333 17.6667 19.25 19.25C17.6667 20.8333 16.875 22.75 16.875 25C16.875 27.25 17.6667 29.1667 19.25 30.75C20.8333 32.3333 22.75 33.125 25 33.125Z" fill="#5F6368"/>
</svg>
