<svg width="49" height="50" viewBox="0 0 49 50" fill="none" xmlns="http://www.w3.org/2000/svg">
<path d="M42.9234 31.6125V12.935L30.7425 4.40835L18.5615 12.935V20.4176H15.0812V11.1949L30.7425 0L46.4037 11.1949V31.6125H42.9234ZM31.9025 16.2413H34.2227V13.9211H31.9025V16.2413ZM27.2622 16.2413H29.5824V13.9211H27.2622V16.2413ZM31.9025 20.8817H34.2227V18.5615H31.9025V20.8817ZM27.2622 20.8817H29.5824V18.5615H27.2622V20.8817ZM12.471 41.1833L30.2784 46.4037L44.6636 41.8794C44.6636 41.106 44.3639 40.4582 43.7645 39.9362C43.1651 39.4142 42.4594 39.1531 41.6473 39.1531H29.5244C28.9056 39.1531 28.2966 39.1048 27.6972 39.0081C27.0978 38.9114 26.5081 38.7664 25.9281 38.5731L20.3596 36.891L21.4617 33.3527L26.9142 35.2088C27.3395 35.3635 27.7746 35.4795 28.2193 35.5568C28.664 35.6342 29.099 35.6729 29.5244 35.6729H32.7726C32.7726 34.8608 32.5019 34.1551 31.9606 33.5557C31.4192 32.9563 30.7618 32.5019 29.9884 32.1926L17.3434 27.3782H12.471V41.1833ZM0 48.1439V23.8979H17.2854C17.4915 23.8979 17.6978 23.9172 17.9043 23.9559C18.1104 23.9946 18.3101 24.0526 18.5035 24.1299L31.1485 28.8863C32.6179 29.4277 33.865 30.2978 34.8898 31.4965C35.9145 32.6953 36.4269 34.0874 36.4269 35.6729H41.6473C43.6129 35.6729 45.2838 36.3882 46.6601 37.819C48.036 39.2498 48.7239 40.9513 48.7239 42.9234V44.4316L30.5684 50L12.471 44.8376V48.1439H0ZM3.48028 44.6636H8.93271V27.3782H3.48028V44.6636Z" fill="#5F6368"/>
</svg>
