<svg width="39" height="50" viewBox="0 0 39 50" fill="none" xmlns="http://www.w3.org/2000/svg">
<path d="M28.4375 48.75L25.1562 45.4688C27.7891 42.8141 29.8536 39.7474 31.35 36.2687C32.8458 32.7896 33.5938 29.0391 33.5938 25.0172C33.5938 20.9953 32.8458 17.2406 31.35 13.7531C29.8536 10.2661 27.7891 7.19219 25.1562 4.53125L28.4375 1.25C31.5104 4.32292 33.9193 7.88307 35.6641 11.9305C37.4089 15.9779 38.2812 20.3344 38.2812 25C38.2812 29.6656 37.4089 34.0221 35.6641 38.0695C33.9193 42.1169 31.5104 45.6771 28.4375 48.75ZM21.7969 42.1094L18.5156 38.8281C20.2953 37.0333 21.6909 34.9531 22.7023 32.5875C23.7133 30.2214 24.2188 27.6922 24.2188 25C24.2188 22.3078 23.7133 19.7789 22.7023 17.4133C21.6909 15.0471 20.2953 12.9667 18.5156 11.1719L21.7969 7.89062C23.9844 10.0562 25.7161 12.6029 26.9922 15.5305C28.2682 18.4581 28.9062 21.6146 28.9062 25C28.9062 28.3854 28.2682 31.5419 26.9922 34.4695C25.7161 37.3971 23.9844 39.9438 21.7969 42.1094ZM15.1562 35.4688L11.875 32.1875C12.8016 31.2536 13.5279 30.1711 14.0539 28.9398C14.5805 27.7086 14.8438 26.3927 14.8438 24.9922C14.8438 23.5911 14.5805 22.2771 14.0539 21.05C13.5279 19.8224 12.8016 18.7432 11.875 17.8125L15.1562 14.5312C16.5104 15.8854 17.5781 17.4583 18.3594 19.25C19.1406 21.0422 19.5312 22.9562 19.5312 24.9922C19.5312 27.0286 19.1406 28.9453 18.3594 30.7422C17.5781 32.5391 16.5104 34.1146 15.1562 35.4688ZM0 50V0H4.6875V19.5312C6.19792 19.5312 7.48698 20.0675 8.55469 21.1398C9.6224 22.2122 10.1562 23.5013 10.1562 25.007C10.1562 26.5128 9.62083 27.7995 8.55 28.8672C7.47917 29.9349 6.19167 30.4688 4.6875 30.4688V50H0Z" fill="#5F6368"/>
</svg>
